<svg width="237" height="237" viewBox="0 0 237 237" fill="none" xmlns="http://www.w3.org/2000/svg">
<path d="M37.098 172.547H33.9872C33.9304 172.144 33.8144 171.787 33.6392 171.474C33.464 171.157 33.2391 170.887 32.9645 170.665C32.6899 170.442 32.3726 170.272 32.0128 170.153C31.6577 170.035 31.2718 169.976 30.8551 169.976C30.1023 169.976 29.4465 170.163 28.8878 170.537C28.3291 170.906 27.8958 171.446 27.5881 172.156C27.2803 172.862 27.1264 173.719 27.1264 174.727C27.1264 175.764 27.2803 176.635 27.5881 177.341C27.9006 178.046 28.3362 178.579 28.8949 178.939C29.4536 179.299 30.0999 179.479 30.8338 179.479C31.2457 179.479 31.6269 179.424 31.9773 179.315C32.3324 179.206 32.6473 179.048 32.9219 178.839C33.1965 178.626 33.4238 178.368 33.6037 178.065C33.7884 177.762 33.9162 177.417 33.9872 177.028L37.098 177.043C37.0175 177.71 36.8163 178.354 36.4943 178.974C36.1771 179.59 35.7486 180.142 35.2088 180.629C34.6738 181.112 34.0346 181.496 33.2912 181.78C32.5526 182.059 31.7169 182.199 30.7841 182.199C29.4867 182.199 28.3267 181.905 27.304 181.318C26.286 180.731 25.4811 179.881 24.8892 178.768C24.3021 177.656 24.0085 176.309 24.0085 174.727C24.0085 173.141 24.3068 171.792 24.9034 170.679C25.5 169.566 26.3097 168.719 27.3324 168.136C28.3551 167.549 29.5057 167.256 30.7841 167.256C31.6269 167.256 32.4081 167.374 33.1278 167.611C33.8523 167.848 34.4938 168.193 35.0526 168.648C35.6113 169.098 36.0658 169.649 36.4162 170.303C36.7713 170.956 36.9986 171.704 37.098 172.547ZM44.1754 182.213C43.0722 182.213 42.1181 181.979 41.3132 181.51C40.513 181.036 39.8951 180.378 39.4595 179.536C39.0239 178.688 38.8061 177.705 38.8061 176.588C38.8061 175.461 39.0239 174.476 39.4595 173.634C39.8951 172.786 40.513 172.128 41.3132 171.659C42.1181 171.186 43.0722 170.949 44.1754 170.949C45.2786 170.949 46.2304 171.186 47.0305 171.659C47.8355 172.128 48.4557 172.786 48.8913 173.634C49.3269 174.476 49.5447 175.461 49.5447 176.588C49.5447 177.705 49.3269 178.688 48.8913 179.536C48.4557 180.378 47.8355 181.036 47.0305 181.51C46.2304 181.979 45.2786 182.213 44.1754 182.213ZM44.1896 179.869C44.6915 179.869 45.1106 179.727 45.4467 179.443C45.7829 179.154 46.0362 178.761 46.2067 178.264C46.3819 177.767 46.4695 177.201 46.4695 176.567C46.4695 175.932 46.3819 175.366 46.2067 174.869C46.0362 174.372 45.7829 173.979 45.4467 173.69C45.1106 173.402 44.6915 173.257 44.1896 173.257C43.683 173.257 43.2569 173.402 42.9112 173.69C42.5703 173.979 42.3123 174.372 42.1371 174.869C41.9666 175.366 41.8814 175.932 41.8814 176.567C41.8814 177.201 41.9666 177.767 42.1371 178.264C42.3123 178.761 42.5703 179.154 42.9112 179.443C43.2569 179.727 43.683 179.869 44.1896 179.869ZM54.5376 175.693V182H51.5121V171.091H54.3956V173.016H54.5234C54.7649 172.381 55.1697 171.879 55.7379 171.51C56.3061 171.136 56.995 170.949 57.8047 170.949C58.5623 170.949 59.2228 171.115 59.7862 171.446C60.3497 171.777 60.7876 172.251 61.1001 172.866C61.4126 173.477 61.5689 174.206 61.5689 175.054V182H58.5433V175.594C58.5481 174.926 58.3776 174.405 58.032 174.031C57.6863 173.652 57.2105 173.463 56.6044 173.463C56.1972 173.463 55.8374 173.551 55.5249 173.726C55.2171 173.901 54.9756 174.157 54.8004 174.493C54.63 174.824 54.5424 175.224 54.5376 175.693ZM69.756 171.091V173.364H63.1864V171.091H69.756ZM64.6779 168.477H67.7035V178.648C67.7035 178.927 67.7461 179.145 67.8313 179.301C67.9165 179.453 68.0349 179.559 68.1864 179.621C68.3427 179.682 68.5226 179.713 68.7262 179.713C68.8683 179.713 69.0103 179.701 69.1523 179.678C69.2944 179.649 69.4033 179.628 69.479 179.614L69.9549 181.865C69.8034 181.912 69.5903 181.967 69.3157 182.028C69.0411 182.095 68.7073 182.135 68.3143 182.149C67.5851 182.178 66.9459 182.08 66.3967 181.858C65.8522 181.635 65.4284 181.29 65.1254 180.821C64.8223 180.352 64.6732 179.76 64.6779 179.045V168.477ZM71.7269 182V171.091H74.6602V172.994H74.7738C74.9727 172.317 75.3065 171.806 75.7752 171.46C76.244 171.11 76.7837 170.935 77.3945 170.935C77.546 170.935 77.7094 170.944 77.8846 170.963C78.0598 170.982 78.2137 171.008 78.3462 171.041V173.726C78.2042 173.683 78.0077 173.645 77.7567 173.612C77.5058 173.579 77.2762 173.562 77.0678 173.562C76.6228 173.562 76.225 173.66 75.8746 173.854C75.529 174.043 75.2544 174.308 75.0508 174.649C74.8519 174.99 74.7525 175.383 74.7525 175.828V182H71.7269ZM84.3317 182.213C83.2285 182.213 82.2744 181.979 81.4695 181.51C80.6693 181.036 80.0514 180.378 79.6158 179.536C79.1802 178.688 78.9624 177.705 78.9624 176.588C78.9624 175.461 79.1802 174.476 79.6158 173.634C80.0514 172.786 80.6693 172.128 81.4695 171.659C82.2744 171.186 83.2285 170.949 84.3317 170.949C85.4349 170.949 86.3866 171.186 87.1868 171.659C87.9917 172.128 88.612 172.786 89.0476 173.634C89.4832 174.476 89.701 175.461 89.701 176.588C89.701 177.705 89.4832 178.688 89.0476 179.536C88.612 180.378 87.9917 181.036 87.1868 181.51C86.3866 181.979 85.4349 182.213 84.3317 182.213ZM84.3459 179.869C84.8478 179.869 85.2668 179.727 85.603 179.443C85.9392 179.154 86.1925 178.761 86.3629 178.264C86.5381 177.767 86.6257 177.201 86.6257 176.567C86.6257 175.932 86.5381 175.366 86.3629 174.869C86.1925 174.372 85.9392 173.979 85.603 173.69C85.2668 173.402 84.8478 173.257 84.3459 173.257C83.8393 173.257 83.4131 173.402 83.0675 173.69C82.7266 173.979 82.4685 174.372 82.2933 174.869C82.1229 175.366 82.0376 175.932 82.0376 176.567C82.0376 177.201 82.1229 177.767 82.2933 178.264C82.4685 178.761 82.7266 179.154 83.0675 179.443C83.4131 179.727 83.8393 179.869 84.3459 179.869ZM94.6939 167.455V182H91.6683V167.455H94.6939ZM102.089 182.213C100.967 182.213 100.001 181.986 99.1914 181.531C98.3865 181.072 97.7662 180.423 97.3306 179.585C96.895 178.742 96.6772 177.746 96.6772 176.595C96.6772 175.473 96.895 174.488 97.3306 173.641C97.7662 172.793 98.3794 172.133 99.1701 171.659C99.9656 171.186 100.898 170.949 101.968 170.949C102.688 170.949 103.358 171.065 103.978 171.297C104.603 171.524 105.148 171.867 105.612 172.327C106.081 172.786 106.445 173.364 106.706 174.06C106.966 174.751 107.096 175.561 107.096 176.489V177.32H97.8846V175.445H104.248C104.248 175.009 104.154 174.623 103.964 174.287C103.775 173.951 103.512 173.688 103.176 173.499C102.844 173.304 102.458 173.207 102.018 173.207C101.559 173.207 101.152 173.314 100.797 173.527C100.446 173.735 100.172 174.017 99.9727 174.372C99.7738 174.723 99.672 175.113 99.6673 175.544V177.327C99.6673 177.866 99.7667 178.333 99.9656 178.726C100.169 179.119 100.456 179.422 100.825 179.635C101.194 179.848 101.632 179.955 102.139 179.955C102.475 179.955 102.783 179.907 103.062 179.812C103.342 179.718 103.581 179.576 103.779 179.386C103.978 179.197 104.13 178.965 104.234 178.69L107.032 178.875C106.89 179.547 106.599 180.134 106.159 180.636C105.723 181.134 105.16 181.522 104.468 181.801C103.782 182.076 102.989 182.213 102.089 182.213ZM113.756 182V167.455H123.387V169.99H116.832V173.456H122.748V175.991H116.832V182H113.756ZM125.399 182V171.091H128.424V182H125.399ZM126.919 169.685C126.469 169.685 126.083 169.536 125.761 169.237C125.444 168.934 125.285 168.572 125.285 168.151C125.285 167.734 125.444 167.376 125.761 167.078C126.083 166.775 126.469 166.624 126.919 166.624C127.368 166.624 127.752 166.775 128.069 167.078C128.391 167.376 128.552 167.734 128.552 168.151C128.552 168.572 128.391 168.934 128.069 169.237C127.752 169.536 127.368 169.685 126.919 169.685ZM133.874 175.693V182H130.848V171.091H133.732V173.016H133.859C134.101 172.381 134.506 171.879 135.074 171.51C135.642 171.136 136.331 170.949 137.141 170.949C137.898 170.949 138.559 171.115 139.122 171.446C139.686 171.777 140.124 172.251 140.436 172.866C140.749 173.477 140.905 174.206 140.905 175.054V182H137.879V175.594C137.884 174.926 137.714 174.405 137.368 174.031C137.022 173.652 136.546 173.463 135.94 173.463C135.533 173.463 135.173 173.551 134.861 173.726C134.553 173.901 134.312 174.157 134.136 174.493C133.966 174.824 133.878 175.224 133.874 175.693ZM146.4 182.206C145.704 182.206 145.084 182.085 144.539 181.844C143.995 181.598 143.564 181.235 143.247 180.757C142.934 180.274 142.778 179.673 142.778 178.953C142.778 178.347 142.889 177.838 143.112 177.426C143.334 177.014 143.637 176.683 144.021 176.432C144.404 176.181 144.84 175.991 145.328 175.864C145.82 175.736 146.336 175.646 146.876 175.594C147.511 175.527 148.022 175.466 148.41 175.409C148.798 175.348 149.08 175.258 149.255 175.139C149.431 175.021 149.518 174.846 149.518 174.614V174.571C149.518 174.121 149.376 173.773 149.092 173.527C148.813 173.281 148.415 173.158 147.899 173.158C147.354 173.158 146.921 173.278 146.599 173.52C146.277 173.757 146.064 174.055 145.96 174.415L143.162 174.188C143.304 173.525 143.583 172.952 144 172.469C144.416 171.981 144.954 171.607 145.612 171.347C146.275 171.081 147.042 170.949 147.913 170.949C148.519 170.949 149.099 171.02 149.653 171.162C150.212 171.304 150.707 171.524 151.137 171.822C151.573 172.121 151.916 172.504 152.167 172.973C152.418 173.437 152.544 173.993 152.544 174.642V182H149.674V180.487H149.589C149.414 180.828 149.18 181.129 148.886 181.389C148.592 181.645 148.24 181.846 147.828 181.993C147.416 182.135 146.94 182.206 146.4 182.206ZM147.267 180.118C147.712 180.118 148.105 180.03 148.446 179.855C148.787 179.675 149.054 179.434 149.248 179.131C149.442 178.828 149.539 178.484 149.539 178.101V176.943C149.445 177.005 149.315 177.062 149.149 177.114C148.988 177.161 148.806 177.206 148.602 177.249C148.398 177.286 148.195 177.322 147.991 177.355C147.788 177.384 147.603 177.41 147.437 177.433C147.082 177.485 146.772 177.568 146.507 177.682C146.242 177.795 146.036 177.949 145.889 178.143C145.742 178.333 145.669 178.57 145.669 178.854C145.669 179.266 145.818 179.58 146.116 179.798C146.419 180.011 146.803 180.118 147.267 180.118ZM157.917 175.693V182H154.891V171.091H157.775V173.016H157.902C158.144 172.381 158.549 171.879 159.117 171.51C159.685 171.136 160.374 170.949 161.184 170.949C161.941 170.949 162.602 171.115 163.165 171.446C163.729 171.777 164.167 172.251 164.479 172.866C164.792 173.477 164.948 174.206 164.948 175.054V182H161.922V175.594C161.927 174.926 161.757 174.405 161.411 174.031C161.065 173.652 160.589 173.463 159.983 173.463C159.576 173.463 159.216 173.551 158.904 173.726C158.596 173.901 158.355 174.157 158.179 174.493C158.009 174.824 157.921 175.224 157.917 175.693ZM172.261 182.213C171.144 182.213 170.183 181.976 169.378 181.503C168.578 181.025 167.962 180.362 167.531 179.514C167.105 178.667 166.892 177.691 166.892 176.588C166.892 175.471 167.107 174.491 167.538 173.648C167.974 172.8 168.592 172.14 169.392 171.666C170.192 171.188 171.144 170.949 172.247 170.949C173.199 170.949 174.032 171.122 174.747 171.467C175.462 171.813 176.028 172.298 176.445 172.923C176.861 173.548 177.091 174.282 177.134 175.125H174.278C174.198 174.58 173.985 174.143 173.639 173.811C173.298 173.475 172.851 173.307 172.297 173.307C171.828 173.307 171.419 173.435 171.068 173.69C170.723 173.941 170.453 174.308 170.259 174.791C170.064 175.274 169.967 175.859 169.967 176.545C169.967 177.241 170.062 177.833 170.251 178.321C170.446 178.809 170.718 179.18 171.068 179.436C171.419 179.692 171.828 179.82 172.297 179.82C172.643 179.82 172.953 179.749 173.227 179.607C173.507 179.464 173.736 179.259 173.916 178.989C174.101 178.714 174.222 178.385 174.278 178.001H177.134C177.086 178.835 176.859 179.569 176.452 180.203C176.049 180.833 175.493 181.325 174.783 181.68C174.072 182.036 173.232 182.213 172.261 182.213ZM184.042 182.213C182.92 182.213 181.954 181.986 181.145 181.531C180.34 181.072 179.719 180.423 179.284 179.585C178.848 178.742 178.63 177.746 178.63 176.595C178.63 175.473 178.848 174.488 179.284 173.641C179.719 172.793 180.333 172.133 181.123 171.659C181.919 171.186 182.851 170.949 183.922 170.949C184.641 170.949 185.311 171.065 185.931 171.297C186.556 171.524 187.101 171.867 187.565 172.327C188.034 172.786 188.398 173.364 188.659 174.06C188.919 174.751 189.049 175.561 189.049 176.489V177.32H179.838V175.445H186.201C186.201 175.009 186.107 174.623 185.917 174.287C185.728 173.951 185.465 173.688 185.129 173.499C184.797 173.304 184.412 173.207 183.971 173.207C183.512 173.207 183.105 173.314 182.75 173.527C182.399 173.735 182.125 174.017 181.926 174.372C181.727 174.723 181.625 175.113 181.62 175.544V177.327C181.62 177.866 181.72 178.333 181.919 178.726C182.122 179.119 182.409 179.422 182.778 179.635C183.147 179.848 183.585 179.955 184.092 179.955C184.428 179.955 184.736 179.907 185.015 179.812C185.295 179.718 185.534 179.576 185.733 179.386C185.931 179.197 186.083 178.965 186.187 178.69L188.985 178.875C188.843 179.547 188.552 180.134 188.112 180.636C187.676 181.134 187.113 181.522 186.422 181.801C185.735 182.076 184.942 182.213 184.042 182.213ZM191.024 182V171.091H194.049V182H191.024ZM192.544 169.685C192.094 169.685 191.708 169.536 191.386 169.237C191.069 168.934 190.91 168.572 190.91 168.151C190.91 167.734 191.069 167.376 191.386 167.078C191.708 166.775 192.094 166.624 192.544 166.624C192.993 166.624 193.377 166.775 193.694 167.078C194.016 167.376 194.177 167.734 194.177 168.151C194.177 168.572 194.016 168.934 193.694 169.237C193.377 169.536 192.993 169.685 192.544 169.685ZM196.473 182V171.091H199.406V172.994H199.52C199.719 172.317 200.053 171.806 200.521 171.46C200.99 171.11 201.53 170.935 202.141 170.935C202.292 170.935 202.455 170.944 202.631 170.963C202.806 170.982 202.96 171.008 203.092 171.041V173.726C202.95 173.683 202.754 173.645 202.503 173.612C202.252 173.579 202.022 173.562 201.814 173.562C201.369 173.562 200.971 173.66 200.621 173.854C200.275 174.043 200 174.308 199.797 174.649C199.598 174.99 199.499 175.383 199.499 175.828V182H196.473ZM209.078 182.213C207.975 182.213 207.02 181.979 206.216 181.51C205.415 181.036 204.797 180.378 204.362 179.536C203.926 178.688 203.708 177.705 203.708 176.588C203.708 175.461 203.926 174.476 204.362 173.634C204.797 172.786 205.415 172.128 206.216 171.659C207.02 171.186 207.975 170.949 209.078 170.949C210.181 170.949 211.133 171.186 211.933 171.659C212.738 172.128 213.358 172.786 213.794 173.634C214.229 174.476 214.447 175.461 214.447 176.588C214.447 177.705 214.229 178.688 213.794 179.536C213.358 180.378 212.738 181.036 211.933 181.51C211.133 181.979 210.181 182.213 209.078 182.213ZM209.092 179.869C209.594 179.869 210.013 179.727 210.349 179.443C210.685 179.154 210.939 178.761 211.109 178.264C211.284 177.767 211.372 177.201 211.372 176.567C211.372 175.932 211.284 175.366 211.109 174.869C210.939 174.372 210.685 173.979 210.349 173.69C210.013 173.402 209.594 173.257 209.092 173.257C208.585 173.257 208.159 173.402 207.814 173.69C207.473 173.979 207.215 174.372 207.039 174.869C206.869 175.366 206.784 175.932 206.784 176.567C206.784 177.201 206.869 177.767 207.039 178.264C207.215 178.761 207.473 179.154 207.814 179.443C208.159 179.727 208.585 179.869 209.092 179.869Z" fill="white"/>
<path d="M166.787 46.737H70.7639C68.2419 46.737 66.1977 48.7869 66.1977 51.3032C66.1977 53.8196 68.2419 55.8695 70.7639 55.8695H166.787C173.19 55.8695 178.407 61.0806 178.407 67.5009V126.505C178.407 132.914 173.19 138.125 166.787 138.125H71.2188C64.8157 138.125 59.5989 132.914 59.5989 126.505V67.0461C59.5989 64.5182 57.549 62.4741 55.0211 62.4741C52.5048 62.4741 50.4607 64.5182 50.4607 67.0461V126.505C50.4607 137.958 59.7716 147.263 71.2188 147.263H166.787C178.234 147.263 187.545 137.958 187.545 126.505V67.5009C187.545 56.0422 178.234 46.737 166.787 46.737V46.737ZM151.441 111.608C148.666 111.608 146.42 109.357 146.42 106.599C146.42 104.065 144.37 102.021 141.848 102.021C139.326 102.021 137.282 104.065 137.282 106.599C137.282 112.789 141.313 118.017 146.869 119.929V122.514C146.869 125.036 148.919 127.092 151.441 127.092C153.969 127.092 156.008 125.036 156.008 122.514V119.929C161.57 118.017 165.595 112.789 165.595 106.599C165.595 98.7793 159.25 92.428 151.441 92.428C148.666 92.428 146.42 90.1766 146.42 87.4127C146.42 84.643 148.666 82.3915 151.441 82.3915C154.205 82.3915 156.457 84.643 156.457 87.4127C156.457 89.9347 158.501 91.9846 161.029 91.9846C163.551 91.9846 165.595 89.9347 165.595 87.4127C165.595 81.2111 161.57 75.9942 156.008 74.0768V71.4798C156.008 68.9578 153.969 66.9079 151.441 66.9079C148.919 66.9079 146.869 68.9578 146.869 71.4798V74.0768C141.313 75.9942 137.282 81.2111 137.282 87.4127C137.282 95.2207 143.633 101.566 151.441 101.566C154.205 101.566 156.457 103.818 156.457 106.599C156.457 109.357 154.205 111.608 151.441 111.608V111.608ZM73.3033 124.42H119C121.522 124.42 123.566 122.365 123.566 119.848C123.566 117.332 121.522 115.282 119 115.282H73.3033C70.7812 115.282 68.7371 117.332 68.7371 119.848C68.7371 122.365 70.7812 124.42 73.3033 124.42V124.42ZM73.3033 78.7236H119C121.522 78.7236 123.566 76.6737 123.566 74.1574C123.566 71.6295 121.522 69.5854 119 69.5854H73.3033C70.7812 69.5854 68.7371 71.6295 68.7371 74.1574C68.7371 76.6737 70.7812 78.7236 73.3033 78.7236V78.7236ZM73.3033 101.566H119C121.522 101.566 123.566 99.5221 123.566 96.9942C123.566 94.4722 121.522 92.428 119 92.428H73.3033C70.7812 92.428 68.7371 94.4722 68.7371 96.9942C68.7371 99.5221 70.7812 101.566 73.3033 101.566V101.566Z" fill="white"/>
</svg>
