<svg width="28" height="28" viewBox="0 0 28 28" fill="none" xmlns="http://www.w3.org/2000/svg">
<path d="M10.7262 10.7599V3.46734C10.7262 2.44693 11.0083 1.61802 11.572 0.980346C12.1357 0.326782 12.9409 0 13.9878 0C15.0346 0 15.8399 0.326782 16.4036 0.980346C16.9836 1.61802 17.2736 2.44693 17.2736 3.46713V10.7597H24.5452C25.6079 10.7597 26.4458 11.0467 27.0574 11.6208C27.6858 12.1787 28 12.9679 28 13.9879C28 15.0241 27.6858 15.8289 27.0574 16.403C26.4458 16.977 25.6079 17.2635 24.5452 17.2635H17.2736V24.5327C17.2736 25.5688 16.9836 26.4059 16.4036 27.0436C15.8241 27.6812 15.0183 28 13.9878 28C12.9573 28 12.152 27.6812 11.572 27.0436C11.0083 26.4059 10.7262 25.5688 10.7262 24.5327V17.2635H3.45455C2.42391 17.2635 1.58643 16.9531 0.942165 16.3311C0.314055 15.6935 0 14.9126 0 13.9879C0 12.9679 0.306002 12.1787 0.918007 11.6208C1.54617 11.0467 2.3917 10.7597 3.45466 10.7597L10.7262 10.7599Z" fill="white"/>
</svg>
