<svg width="7" height="5" viewBox="0 0 7 5" fill="none" xmlns="http://www.w3.org/2000/svg">
<path d="M0.777778 0C0.348785 0 0 0.340065 0 0.758333V3.79167C0 4.20994 0.348785 4.55 0.777778 4.55H6.22222C6.65122 4.55 7 4.20994 7 3.79167V0.758333C7 0.340065 6.65122 0 6.22222 0H0.777778ZM3.30556 1.51667H6.02778C6.13472 1.51667 6.22222 1.60198 6.22222 1.70625C6.22222 1.81052 6.13472 1.89583 6.02778 1.89583H3.30556C3.19861 1.89583 3.11111 1.81052 3.11111 1.70625C3.11111 1.60198 3.19861 1.51667 3.30556 1.51667ZM3.11111 2.84375C3.11111 2.73948 3.19861 2.65417 3.30556 2.65417H6.02778C6.13472 2.65417 6.22222 2.73948 6.22222 2.84375C6.22222 2.94802 6.13472 3.03333 6.02778 3.03333H3.30556C3.19861 3.03333 3.11111 2.94802 3.11111 2.84375ZM1.99306 1.04271V1.20741C2.0842 1.22163 2.17049 1.24177 2.24948 1.2631C2.37951 1.29628 2.45608 1.42661 2.42205 1.5534C2.38802 1.68018 2.25434 1.75483 2.12431 1.72165C1.99063 1.68729 1.86181 1.66241 1.74514 1.66004C1.64913 1.65885 1.55069 1.68137 1.48385 1.71928C1.42552 1.75246 1.40851 1.78564 1.40851 1.82948C1.40851 1.85081 1.40972 1.87095 1.47292 1.90887C1.54948 1.95389 1.66128 1.98826 1.81684 2.03328L1.82535 2.03565C1.96146 2.07594 2.13646 2.12689 2.27622 2.21339C2.43299 2.30936 2.57153 2.46577 2.57517 2.7063C2.57882 2.95395 2.44757 3.13405 2.27378 3.23951C2.18628 3.29283 2.08906 3.326 1.99184 3.34615V3.50729C1.99184 3.63763 1.88247 3.74427 1.74878 3.74427C1.6151 3.74427 1.50573 3.63763 1.50573 3.50729V3.3343C1.38056 3.30823 1.26267 3.26913 1.16302 3.23477C1.1375 3.22647 1.11319 3.21818 1.08889 3.20988C0.961285 3.16841 0.893229 3.03452 0.935764 2.9101C0.978299 2.78569 1.11563 2.71934 1.24323 2.76081C1.27361 2.77029 1.30278 2.78095 1.33073 2.78924C1.49601 2.84375 1.6224 2.88522 1.75729 2.88996C1.86181 2.89352 1.95781 2.871 2.01736 2.83427C2.06719 2.80465 2.09028 2.7691 2.08906 2.70986C2.08906 2.6755 2.07934 2.65061 2.01736 2.6127C1.9408 2.5653 1.83021 2.53094 1.67708 2.48591L1.65642 2.47999C1.52396 2.44089 1.35747 2.3923 1.22378 2.3141C1.06944 2.22286 0.924826 2.0712 0.923611 1.83185C0.922396 1.58184 1.06701 1.40884 1.23715 1.31168C1.32101 1.2631 1.41337 1.23111 1.50694 1.21096V1.04271C1.50694 0.91237 1.61632 0.805729 1.75 0.805729C1.88368 0.805729 1.99306 0.91237 1.99306 1.04271Z" fill="black"/>
</svg>
