<svg width="7" height="7" viewBox="0 0 7 7" fill="none" xmlns="http://www.w3.org/2000/svg">
<path d="M6.07587 0.757418L6.24258 0.924125C6.37209 1.05363 6.37209 1.26305 6.24258 1.39118L5.84166 1.79349L5.20651 1.15834L5.60744 0.757418C5.73695 0.627909 5.94637 0.627909 6.0745 0.757418H6.07587ZM2.89052 3.47572L4.73946 1.6254L5.3746 2.26054L3.52428 4.10948C3.48433 4.14944 3.43473 4.17837 3.381 4.19352L2.57501 4.42361L2.8051 3.61763C2.82025 3.56389 2.84919 3.51429 2.88914 3.47434L2.89052 3.47572ZM5.14038 0.290361L2.42208 3.00728C2.30222 3.12715 2.21542 3.27457 2.16996 3.43576L1.77592 4.81351C1.74285 4.92924 1.77454 5.05324 1.85996 5.13866C1.94538 5.22408 2.06938 5.25577 2.18511 5.2227L3.56286 4.82867C3.72543 4.78182 3.87285 4.69503 3.99134 4.57654L6.70964 1.85962C7.09679 1.47247 7.09679 0.844216 6.70964 0.457068L6.54293 0.290361C6.15578 -0.0967869 5.52753 -0.0967869 5.14038 0.290361ZM1.21242 0.827683C0.542833 0.827683 0 1.37052 0 2.0401V5.78758C0 6.45717 0.542833 7 1.21242 7H4.9599C5.62948 7 6.17232 6.45717 6.17232 5.78758V4.2445C6.17232 4.06126 6.0249 3.91384 5.84166 3.91384C5.65842 3.91384 5.511 4.06126 5.511 4.2445V5.78758C5.511 6.09206 5.26438 6.33868 4.9599 6.33868H1.21242C0.907937 6.33868 0.66132 6.09206 0.66132 5.78758V2.0401C0.66132 1.73562 0.907937 1.489 1.21242 1.489H2.7555C2.93874 1.489 3.08616 1.34158 3.08616 1.15834C3.08616 0.975102 2.93874 0.827683 2.7555 0.827683H1.21242Z" fill="black"/>
</svg>
