<svg width="7" height="9" viewBox="0 0 7 9" fill="none" xmlns="http://www.w3.org/2000/svg">
<path d="M4.625 0.377344C4.625 0.168232 4.79219 0 5 0C5.20781 0 5.375 0.168232 5.375 0.377344V1.00625H6C6.55156 1.00625 7 1.45749 7 2.0125V2.26406V3.01875V7.04375C7 7.59876 6.55156 8.05 6 8.05H1C0.448438 8.05 0 7.59876 0 7.04375V3.01875V2.26406V2.0125C0 1.45749 0.448438 1.00625 1 1.00625H1.625V0.377344C1.625 0.168232 1.79219 0 2 0C2.20781 0 2.375 0.168232 2.375 0.377344V1.00625H4.625V0.377344ZM6.25 3.01875H5V3.89922H6.25V3.01875ZM6.25 4.65391H5V5.66016H6.25V4.65391ZM4.25 4.65391H2.75V5.66016H4.25V4.65391ZM2 4.65391H0.75V5.66016H2V4.65391ZM0.75 3.89922H2V3.01875H0.75V3.89922ZM0.75 6.41484V7.04375C0.75 7.18211 0.8625 7.29531 1 7.29531H2V6.41484H0.75ZM2.75 6.41484V7.29531H4.25V6.41484H2.75ZM5 6.41484V7.29531H6C6.1375 7.29531 6.25 7.18211 6.25 7.04375V6.41484H5ZM2.75 3.89922H4.25V3.01875H2.75V3.89922Z" fill="black"/>
</svg>
